{"title":"Solitary-S04E001-Unchained.Malady.avi","uid":5398088,"size":579911466,"categoryP":"video","categoryS":"tv_shows","magnet":"?xt=urn:btih:27085cffc0d69e64010361b8f6163b8a2b851fa2&amp;dn=Solitary-S04E001-Unchained.Malady.avi&amp;tr=udp%3A%2F%2Ftracker.openbittorrent.com%3A80&amp;tr=udp%3A%2F%2Fopen.demonii.com%3A1337&amp;tr=udp%3A%2F%2Ftracker.coppersurfer.tk%3A6969&amp;tr=udp%3A%2F%2Fexodus.desync.com%3A6969","seeders":2,"leechers":0,"uploader":"pixiesmiles","files":-1,"time":1267307513,"description":"I have been around the pirate bay for a while now, but this is my first torrent, so please be kind. ;o)  \n\nJust to warn you in advance, my upload speed is less than desirable.  So, if you can't handle that, you may want to wait until the file is more fully seeded. \n\nI have been unable to find torrents to this season of Solitary anywhere on the web, so I thought I would share. \n\nEnjoy!\n\n-pixie\n\nFormat                           : AVI\nFormat/Info                      : Audio Video Interleave\nFile size                        : 553 MiB\nDuration                         : 1h 6mn\nOverall bit rate                 : 1 165 Kbps\n\nVideo\nFormat                           : xvid\nCodec ID                         : xvid\nDuration                         : 1h 6mn\nBit rate                         : 1 024 Kbps\nWidth                            : 640 pixels\nHeight                           : 360 pixels\nDisplay aspect ratio             : 16:9\nFrame rate                       : 29.970 fps\nBits/(Pixel*Frame)               : 0.148\nStream size                      : 486 MiB (88%)\n\nAudio\nID                               : 1\nFormat                           : MPEG Audio\nFormat version                   : Version 1\nFormat profile                   : Layer 3\nMode                             : Joint stereo\nFormat_Settings_ModeExtension    : MS Stereo\nCodec ID                         : 55\nCodec ID/Hint                    : MP3\nDuration                         : 1h 6mn\nBit rate mode                    : Constant\nBit rate                         : 128 Kbps\nChannel(s)                       : 2 channels\nSampling rate                    : 48.0 KHz\nStream size                      : 60.7 MiB (11%)\nAlignment                        : Aligned on interleaves\nInterleave, duration             : 24 ms (0.72 video frame)\nWriting library                  : LAME3.97 (beta)\n\nIMDB: http://www.imdb.com/title/tt1553414/","torrent":{"xt":"urn:btih:27085cffc0d69e64010361b8f6163b8a2b851fa2","amp;dn":"Solitary-S04E001-Unchained.Malady.avi","amp;tr":["udp%3A%2F%2Ftracker.openbittorrent.com%3A80","udp%3A%2F%2Fopen.demonii.com%3A1337","udp%3A%2F%2Ftracker.coppersurfer.tk%3A6969","udp%3A%2F%2Fexodus.desync.com%3A6969"],"infoHash":"27085cffc0d69e64010361b8f6163b8a2b851fa2","infoHashBuffer":{"type":"Buffer","data":[39,8,92,255,192,214,158,100,1,3,97,184,246,22,59,138,43,133,31,162]},"announce":[],"urlList":[]}}